<svg xmlns="http://www.w3.org/2000/svg" xmlns:xlink="http://www.w3.org/1999/xlink" width="500" zoomAndPan="magnify" viewBox="0 0 375 374.999991" height="500" preserveAspectRatio="xMidYMid meet" version="1.0"><path fill="#9300f3" d="M 265.625 0 C 261.480469 0 257.507812 1.644531 254.578125 4.578125 C 251.648438 7.507812 250 11.480469 250 15.625 C 250 61.703125 209.640625 78.125 171.875 78.125 L 62.5 78.125 C 45.925781 78.125 30.027344 84.710938 18.304688 96.429688 C 6.585938 108.152344 0 124.050781 0 140.625 L 0 171.875 C 0.0351562 181.230469 2.179688 190.457031 6.273438 198.867188 C 10.371094 207.28125 16.3125 214.65625 23.65625 220.453125 L 79.46875 345.015625 C 83.4375 353.9375 89.910156 361.519531 98.097656 366.84375 C 106.285156 372.164062 115.84375 374.996094 125.609375 375 C 133.378906 374.996094 141.027344 373.046875 147.851562 369.332031 C 154.675781 365.617188 160.464844 360.257812 164.6875 353.734375 C 168.914062 347.210938 171.4375 339.734375 172.035156 331.988281 C 172.632812 324.242188 171.28125 316.46875 168.109375 309.375 L 133.734375 234.375 L 171.875 234.375 C 209.640625 234.375 250 250.796875 250 296.875 C 250 301.019531 251.648438 304.992188 254.578125 307.921875 C 257.507812 310.851562 261.480469 312.5 265.625 312.5 C 269.769531 312.5 273.742188 310.851562 276.671875 307.921875 C 279.601562 304.992188 281.25 301.019531 281.25 296.875 L 281.25 15.625 C 281.25 11.480469 279.601562 7.507812 276.671875 4.578125 C 273.742188 1.644531 269.769531 0 265.625 0 Z M 139.640625 322.171875 C 140.675781 324.507812 141.109375 327.066406 140.90625 329.617188 C 140.703125 332.164062 139.867188 334.621094 138.472656 336.765625 C 137.078125 338.90625 135.171875 340.667969 132.925781 341.886719 C 130.679688 343.109375 128.164062 343.75 125.609375 343.75 C 121.882812 343.746094 118.234375 342.664062 115.109375 340.625 C 111.988281 338.589844 109.523438 335.691406 108.015625 332.28125 L 64.140625 234.375 L 99.359375 234.375 Z M 250 228.125 C 227.675781 210.925781 200.039062 202.078125 171.875 203.125 L 62.5 203.125 C 54.210938 203.125 46.261719 199.832031 40.402344 193.972656 C 34.542969 188.109375 31.25 180.164062 31.25 171.875 L 31.25 140.625 C 31.25 132.335938 34.542969 124.386719 40.402344 118.527344 C 46.261719 112.667969 54.210938 109.375 62.5 109.375 L 171.875 109.375 C 200.027344 110.441406 227.664062 101.625 250 84.453125 Z M 373.4375 241.4375 C 372.519531 243.273438 371.25 244.914062 369.703125 246.257812 C 368.152344 247.605469 366.351562 248.632812 364.402344 249.28125 C 362.457031 249.933594 360.398438 250.191406 358.351562 250.046875 C 356.304688 249.902344 354.304688 249.355469 352.46875 248.4375 L 321.21875 232.8125 C 317.507812 230.960938 314.6875 227.710938 313.375 223.777344 C 312.0625 219.84375 312.367188 215.554688 314.21875 211.84375 C 316.070312 208.132812 319.320312 205.3125 323.253906 204 C 327.1875 202.6875 331.476562 202.992188 335.1875 204.84375 L 366.4375 220.46875 C 370.125 222.320312 372.933594 225.554688 374.246094 229.46875 C 375.558594 233.382812 375.265625 237.660156 373.4375 241.359375 Z M 314.21875 100.8125 C 313.300781 98.976562 312.753906 96.976562 312.609375 94.929688 C 312.464844 92.882812 312.722656 90.824219 313.375 88.878906 C 314.023438 86.929688 315.050781 85.128906 316.398438 83.578125 C 317.742188 82.03125 319.382812 80.761719 321.21875 79.84375 L 352.46875 64.21875 C 356.179688 62.367188 360.46875 62.0625 364.402344 63.375 C 368.335938 64.6875 371.585938 67.511719 373.4375 71.21875 C 375.289062 74.925781 375.59375 79.21875 374.28125 83.152344 C 372.96875 87.085938 370.148438 90.335938 366.4375 92.1875 L 335.1875 107.8125 C 333.351562 108.730469 331.351562 109.277344 329.304688 109.421875 C 327.257812 109.566406 325.199219 109.308594 323.253906 108.65625 C 321.304688 108.007812 319.503906 106.980469 317.953125 105.632812 C 316.40625 104.289062 315.136719 102.648438 314.21875 100.8125 Z M 312.5 156.25 C 312.5 152.105469 314.148438 148.132812 317.078125 145.203125 C 320.007812 142.269531 323.980469 140.625 328.125 140.625 L 359.375 140.625 C 363.519531 140.625 367.492188 142.269531 370.421875 145.203125 C 373.351562 148.132812 375 152.105469 375 156.25 C 375 160.394531 373.351562 164.367188 370.421875 167.296875 C 367.492188 170.226562 363.519531 171.875 359.375 171.875 L 328.125 171.875 C 323.980469 171.875 320.007812 170.226562 317.078125 167.296875 C 314.148438 164.367188 312.5 160.394531 312.5 156.25 Z M 312.5 156.25 " fill-opacity="1" fill-rule="nonzero"/></svg>